<?xml version="1.0" standalone="no"?>
<!DOCTYPE svg PUBLIC "-//W3C//DTD SVG 20010904//EN"
 "http://www.w3.org/TR/2001/REC-SVG-20010904/DTD/svg10.dtd">
<svg version="1.0" xmlns="http://www.w3.org/2000/svg"
 width="214.000000pt" height="214.000000pt" viewBox="0 0 214.000000 214.000000"
 preserveAspectRatio="xMidYMid meet">
<metadata>
Created by potrace 1.14, written by Peter Selinger 2001-2017
</metadata>
<g transform="translate(0.000000,214.000000) scale(0.100000,-0.100000)"
fill="#000000" stroke="none">
<path d="M0 1070 l0 -1050 1070 0 1070 0 0 1050 0 1050 -1070 0 -1070 0 0
-1050z m1160 818 c17 -54 34 -98 36 -98 2 0 63 29 134 65 72 36 130 64 130 62
0 -2 -9 -30 -20 -62 -11 -32 -20 -62 -20 -67 0 -5 23 -8 52 -6 l52 3 37 -64
c34 -59 43 -68 111 -100 40 -20 72 -40 71 -46 0 -5 -12 -47 -26 -93 l-26 -83
55 -30 c53 -30 74 -49 55 -49 -10 0 -9 -25 2 -37 4 -3 -7 -22 -25 -40 l-32
-33 27 -28 c19 -20 26 -35 21 -48 -4 -13 -3 -15 3 -6 7 10 14 7 29 -10 14 -17
15 -19 2 -9 -9 7 -21 10 -25 8 -5 -3 -35 18 -67 47 l-59 52 56 43 56 43 -147
73 c-81 40 -148 72 -150 71 -1 -2 16 -47 38 -102 l41 -99 -16 -110 c-8 -60
-18 -124 -20 -141 -3 -17 -35 -78 -72 -135 -36 -57 -81 -135 -99 -173 -19 -38
-38 -73 -44 -76 -8 -5 -6 -18 6 -43 10 -20 16 -38 13 -40 -76 -63 -147 -107
-170 -107 l-29 0 0 -91 c0 -69 3 -88 12 -83 7 5 110 83 229 175 174 135 234
175 310 209 133 59 127 57 109 35 -14 -17 -13 -18 5 -11 46 17 -5 -15 -96 -61
-54 -27 -141 -84 -200 -130 -185 -147 -388 -303 -391 -303 -2 0 -115 87 -250
193 -217 169 -259 197 -347 235 -92 40 -123 64 -102 76 5 3 58 -15 119 -39
116 -47 110 -43 455 -310 l97 -76 0 91 c0 90 0 90 -25 90 -16 0 -55 22 -100
56 l-74 56 20 39 c10 21 15 39 9 39 -6 0 -27 35 -48 78 -21 42 -67 122 -101
176 l-64 99 -20 141 -20 141 42 99 c23 54 40 100 38 103 -6 5 -289 -136 -297
-148 -3 -4 -12 -4 -20 1 -13 9 -13 10 0 10 12 0 12 2 2 9 -10 6 2 18 45 41 32
18 60 35 62 36 3 3 -23 102 -45 174 -3 11 18 27 73 55 72 37 81 45 112 102
l34 62 53 -5 54 -6 -14 43 c-7 24 -16 54 -20 67 -4 12 -5 22 -2 22 4 0 60 -27
126 -60 66 -33 123 -60 128 -60 4 0 23 47 42 105 19 58 37 102 41 98 3 -5 21
-52 39 -105z m-724 -609 c5 -8 9 -7 14 1 6 10 20 3 54 -25 25 -20 46 -41 46
-44 0 -4 -25 -29 -55 -55 -50 -43 -55 -45 -55 -25 0 13 12 36 28 52 l27 29
-45 39 c-25 21 -40 39 -33 39 6 0 15 -5 19 -11z m-9 -161 c-3 -8 -6 -5 -6 6
-1 11 2 17 5 13 3 -3 4 -12 1 -19z m1397 -33 c3 -8 1 -15 -4 -15 -6 0 -10 7
-10 15 0 8 2 15 4 15 2 0 6 -7 10 -15z"/>
<path d="M860 1810 c0 -6 7 -27 15 -47 l15 -36 -75 6 -75 5 -25 -41 -24 -42
22 -11 c12 -6 66 -26 120 -44 l99 -34 76 20 77 19 2 75 c0 41 -1 67 -4 58 -2
-10 -9 -18 -15 -18 -6 0 -53 23 -104 50 -100 54 -104 55 -104 40z"/>
<path d="M1270 1770 c-52 -27 -98 -49 -102 -49 -3 -1 -11 11 -16 27 -9 22 -11
12 -11 -55 l-1 -82 53 -16 c100 -30 114 -29 236 14 62 23 115 41 117 41 1 0
-9 20 -22 44 l-25 44 -74 -5 -75 -6 14 47 c8 25 11 46 8 45 -4 0 -50 -22 -102
-49z"/>
<path d="M605 1591 c-46 -21 -46 -21 74 -51 74 -19 90 -20 127 -9 l43 13 -92
33 c-51 18 -96 33 -102 33 -5 0 -28 -9 -50 -19z"/>
<path d="M1476 1576 l-89 -33 47 -12 c40 -10 58 -8 129 9 118 30 117 29 68 51
-24 10 -48 19 -55 18 -6 0 -51 -15 -100 -33z"/>
<path d="M1140 1438 l0 -119 77 -35 76 -35 32 31 c26 26 39 30 83 30 29 0 52
-2 52 -5 0 -2 -9 -30 -21 -61 -22 -59 -18 -57 -82 -37 -22 7 -21 -4 22 -216
l27 -135 40 65 c36 58 42 75 58 189 l17 126 -48 124 -48 125 -143 36 -142 37
0 -120z"/>
<path d="M938 1518 l-117 -30 -53 -126 -54 -127 20 -130 c17 -116 23 -135 57
-188 23 -35 40 -54 43 -46 3 8 14 66 26 129 11 63 25 137 30 163 6 26 10 50
10 53 0 2 -13 -2 -30 -11 -46 -24 -55 -19 -73 38 -9 30 -17 57 -17 60 0 4 24
7 54 7 49 0 57 -3 79 -31 l24 -31 76 33 77 33 0 118 c0 106 -2 118 -17 117
-10 0 -71 -14 -135 -31z"/>
<path d="M1083 1253 c-12 -11 -44 -87 -79 -188 -33 -93 -60 -173 -62 -177 -2
-4 75 -8 172 -8 97 0 176 4 176 9 0 13 -121 355 -129 363 -16 18 -58 18 -78 1z"/>
<path d="M971 1207 c-22 -11 -28 -28 -52 -152 -31 -156 -34 -176 -14 -125 49
130 102 290 97 290 -4 0 -18 -6 -31 -13z"/>
<path d="M1230 1217 c0 -1 27 -79 60 -172 34 -94 59 -159 56 -145 -47 254 -59
298 -83 309 -24 11 -33 13 -33 8z"/>
<path d="M909 803 c-15 -45 -14 -51 6 -97 30 -69 46 -72 132 -24 l73 39 68
-40 c85 -50 103 -47 131 22 21 50 21 52 4 99 -9 26 -21 48 -26 48 -5 0 -48
-21 -96 -47 l-87 -46 -83 46 c-46 26 -89 47 -95 47 -7 0 -19 -21 -27 -47z"/>
<path d="M1038 621 c-37 -19 -71 -45 -77 -57 -8 -19 -3 -26 43 -58 46 -32 60
-36 114 -36 55 0 67 4 112 36 49 35 57 49 42 69 -9 13 -147 85 -158 84 -5 -1
-39 -18 -76 -38z"/>
</g>
</svg>
